<svg id="Layer_1" data-name="Layer 1" xmlns="http://www.w3.org/2000/svg" viewBox="0 0 1280 1280"><defs><style>.cls-1{fill:#f9c03d;}.cls-2{fill:#fff;}.cls-3{fill:#0e2f56;}</style></defs><title>icon</title>
    <path class="cls-1" d="M798.5,443.21l-62.34,62.35a165.13,165.13,0,0,0-117.32-29.48l-85.19-85.19a52.26,52.26,0,0,1,0-73.89L603,247.68a52.37,52.37,0,0,1,74-.09L798.5,369.15A52.4,52.4,0,0,1,798.5,443.21Z"/>
    <path class="cls-1" d="M523.14,523.14a165.31,165.31,0,0,0-17.58,213l-62.43,62.43a52.3,52.3,0,0,1-74-.09L247.6,676.94a52.24,52.24,0,0,1,0-73.88L421.48,429.17a52.26,52.26,0,0,1,73.88,0L561,494.79A165.46,165.46,0,0,0,523.14,523.14Z"/>
    <path class="cls-1" d="M746.26,963.08l-69.32,69.32a52.35,52.35,0,0,1-74-.09L481.41,910.75a52.29,52.29,0,0,1-.09-74l62.41-62.41A165.16,165.16,0,0,0,661,803.93l85.18,85.18A52.35,52.35,0,0,1,746.26,963.08Z"/>
    <path class="cls-1" d="M1032.31,677,858.43,850.91a52.35,52.35,0,0,1-74-.09L718.9,785.26a165.44,165.44,0,0,0,55.47-241.53l62.32-62.32a52.4,52.4,0,0,1,74.07,0L1032.31,603A52.46,52.46,0,0,1,1032.31,677Z"/>
    <circle class="cls-3" cx="640" cy="640" r="116.86"/></svg>
